<?xml version="1.0" encoding="UTF-8"?>
<svg version="1.1" xmlns="http://www.w3.org/2000/svg" width="1024" height="1024">
<path d="M0 0 C337.92 0 675.84 0 1024 0 C1024 337.92 1024 675.84 1024 1024 C686.08 1024 348.16 1024 0 1024 C0 686.08 0 348.16 0 0 Z " fill="#E3EFF8" transform="translate(0,0)"/>
<path d="M0 0 C2.66819168 0.74944449 5.3419611 1.47768756 8.01615524 2.2053709 C11.25846872 3.08936043 14.49669004 3.98778561 17.73504639 4.88616943 C18.91347107 5.21034348 20.09189575 5.53451752 21.30603027 5.86851501 C44.28204679 12.38170748 44.28204679 12.38170748 50.25067139 21.87445068 C54.4811285 29.8246911 55.71465668 38.57116046 57.11590576 47.3505249 C57.49920647 49.74031729 57.90485123 52.12553926 58.31317139 54.51116943 C62.29845899 78.4149788 62.29845899 78.4149788 57.25067139 87.87445068 C56.77500732 88.78130615 56.77500732 88.78130615 56.28973389 89.70648193 C50.5904771 98.98293181 38.50995793 102.78573198 28.96575928 107.03387451 C26.94858921 107.93231065 24.93631323 108.84104645 22.92449951 109.75140381 C-4.71418551 122.19429925 -4.71418551 122.19429925 -19.96417236 116.77679443 C-25.04644268 115.13022439 -28.80485423 115.45826868 -33.68682861 117.31195068 C-38.85291945 119.22565042 -43.97795946 119.37375564 -49.42877197 119.58319092 C-52.8815866 119.40736691 -52.8815866 119.40736691 -55.74932861 120.87445068 C-60.2476557 145.85452239 -53.1615613 169.13987216 -42.50366211 191.44674683 C-32.27346272 212.90081927 -27.62870133 232.24709438 -26.74932861 255.87445068 C-26.08803955 255.19962646 -26.08803955 255.19962646 -25.41339111 254.51116943 C-15.14294753 244.69325498 -2.59636583 237.69350558 10.50067139 232.37445068 C11.26677734 232.06056396 12.0328833 231.74667725 12.82220459 231.42327881 C24.33350869 226.99277793 35.8705722 225.36815963 48.15472412 225.4833374 C50.18413728 225.49941872 52.21155222 225.48338156 54.24090576 225.46429443 C62.53086404 225.45404031 70.00542226 226.3909742 78.0458374 228.32904053 C81.40431927 228.90059903 83.08774673 229.1022039 86.25067139 227.87445068 C88.52555793 225.9527789 90.55462195 224.06025044 92.61785889 221.93304443 C93.21567169 221.33194351 93.8134845 220.73084259 94.42941284 220.11152649 C96.33770643 218.18750751 98.23143328 216.24979819 100.12567139 214.31195068 C101.39172875 213.03439549 102.65864758 211.75769341 103.92645264 210.48187256 C105.15769106 209.23719074 106.38818331 207.99177028 107.61785889 206.74554443 C108.17851044 206.17750595 108.73916199 205.60946747 109.31680298 205.0242157 C112.21426539 202.0583792 115.00753034 199.03502471 117.72113037 195.89959717 C121.1202781 191.97965023 124.69162887 188.27223673 128.35614014 184.60101318 C129.00263016 183.95119476 129.64912018 183.30137634 130.31520081 182.63186646 C131.66763262 181.27441719 133.02137994 179.91827737 134.37640381 178.56341553 C136.44871438 176.48889645 138.51286544 174.40647515 140.57684326 172.32366943 C141.89861968 170.99896238 143.22086854 169.67472652 144.54364014 168.35101318 C145.15724899 167.73021881 145.77085785 167.10942444 146.40306091 166.46981812 C147.2696508 165.60784317 147.2696508 165.60784317 148.15374756 164.72845459 C148.65669846 164.22407867 149.15964935 163.71970276 149.67784119 163.20004272 C152.57837723 160.75545113 154.84782291 159.91921163 158.62567139 159.49945068 C166.15925858 160.27878729 170.97831137 166.33091959 176.05535889 171.48382568 C176.77933868 172.21063538 177.50331848 172.93744507 178.24923706 173.6862793 C180.54614519 175.99432587 182.83597635 178.30925042 185.12567139 180.62445068 C186.68770829 182.19652555 188.25020349 183.76814517 189.81317139 185.33929443 C193.63099288 189.1790922 197.44303778 193.02455157 201.25067139 196.87445068 C204.08638269 195.58396334 206.14346453 194.23127484 208.34205627 192.03030396 C208.9264296 191.45012512 209.51080292 190.86994629 210.11288452 190.27218628 C210.7420578 189.63739349 211.37123108 189.00260071 212.01947021 188.34857178 C213.02760521 187.3432843 213.02760521 187.3432843 214.05610657 186.31768799 C216.27822196 184.09927876 218.49304958 181.87374525 220.70770264 179.64788818 C222.25426858 178.10012957 223.80120498 176.55274106 225.34849548 175.00570679 C228.59381573 171.75882161 231.83574756 168.50860316 235.07513428 165.25579834 C239.21244347 161.10156328 243.35624003 156.95387654 247.5024004 152.8084774 C250.70014831 149.61045639 253.89527392 146.40982621 257.0895443 143.20833206 C258.61546355 141.67924566 260.14197595 140.15075093 261.66910744 138.62287521 C263.81315269 136.4766419 265.95386161 134.32713443 268.09368896 132.17669678 C268.71678955 131.55404938 269.33989014 130.93140198 269.98187256 130.28988647 C273.71424104 126.53066643 277.25844053 122.6533103 280.7129221 118.63692951 C282.82713373 116.21374306 285.07144895 113.94129482 287.35223389 111.67523193 C288.70574951 110.32655029 288.70574951 110.32655029 290.08660889 108.95062256 C291.00699951 108.03861084 291.92739014 107.12659912 292.87567139 106.18695068 C293.80379639 105.2633374 294.73192139 104.33972412 295.68817139 103.38812256 C297.4130804 101.6718628 299.13902306 99.95664072 300.86639404 98.24285889 C302.04661133 97.07049683 302.04661133 97.07049683 303.25067139 95.87445068 C304.17436523 94.99909668 305.09805908 94.12374268 306.04974365 93.22186279 C308.50815385 91.12370363 308.50815385 91.12370363 308.30145264 88.51507568 C308.05781982 87.72616943 307.81418701 86.93726318 307.56317139 86.12445068 C305.25410483 77.10173975 305.71491684 70.16993097 310.25067139 61.87445068 C314.79484262 55.29403056 320.62363129 50.41679738 328.25067139 47.87445068 C338.99752082 47.08841014 346.56012571 47.93484214 355.50067139 54.12445068 C361.6993424 60.32312169 365.13870233 67.28046434 365.62567139 76.12445068 C365.38601417 84.39967346 362.17164988 92.14083458 356.41473389 98.08148193 C348.98137106 104.24017063 341.84930287 106.57965725 332.25848389 106.18304443 C329.25067139 105.87445068 329.25067139 105.87445068 326.35955811 105.10321045 C323.19971614 104.55108141 323.19971614 104.55108141 320.82879639 106.48577881 C320.06051514 107.28435303 319.29223389 108.08292725 318.50067139 108.90570068 C317.64473389 109.77968506 316.78879639 110.65366943 315.90692139 111.55413818 C315.03035889 112.48484131 314.15379639 113.41554443 313.25067139 114.37445068 C312.37410889 115.27421631 311.49754639 116.17398193 310.59442139 117.10101318 C306.98087176 120.83428885 303.43913102 124.59018323 300.12567139 128.59320068 C298.1849879 130.90421767 296.16757912 132.86493088 293.85638428 134.8024292 C287.84670124 140.00722645 282.29689302 145.6842384 276.68426514 151.30804443 C275.47950039 152.51213395 274.27458737 153.71607513 273.0695343 154.9198761 C270.55577681 157.43216693 268.04381702 159.94623758 265.53314209 162.46160889 C262.33367196 165.66677564 259.12973221 168.86743084 255.92442226 172.06675625 C253.43887994 174.54866499 250.95574896 177.03297532 248.47331429 179.51799202 C247.29363201 180.69833584 246.11322185 181.87795269 244.93203545 183.05679131 C239.33623713 188.64390297 233.79156845 194.22826885 228.65129089 200.24476624 C225.33173157 204.10722437 221.66076903 207.64888717 218.06317139 211.24945068 C217.26975342 212.05511475 216.47633545 212.86077881 215.65887451 213.69085693 C214.89123779 214.46042725 214.12360107 215.22999756 213.33270264 216.02288818 C212.64410156 216.71559814 211.95550049 217.40830811 211.24603271 218.12200928 C207.59500167 221.32855532 204.32378572 222.50808085 199.37921143 222.38349915 C196.69927959 221.74258323 195.46387321 220.65366393 193.44403076 218.79217529 C192.74914551 218.15536835 192.05426025 217.5185614 191.33831787 216.86245728 C188.15017968 213.82648361 185.00688064 210.75433533 181.90692139 207.62835693 C180.92507874 206.64439186 180.92507874 206.64439186 179.92340088 205.64054871 C177.86343315 203.57504923 175.80699772 201.50607473 173.75067139 199.43695068 C172.34205089 198.02330635 170.93319872 196.60989283 169.52410889 195.19671631 C166.09695006 191.75861919 162.6729512 188.31740412 159.25067139 184.87445068 C156.03971275 186.28925507 153.89151194 187.98522903 151.41937256 190.46282959 C150.68147995 191.19764557 149.94358734 191.93246155 149.18333435 192.68954468 C148.39473526 193.48532928 147.60613617 194.28111389 146.79364014 195.10101318 C145.56185783 196.33348282 145.56185783 196.33348282 144.30519104 197.59085083 C142.56711714 199.33194585 140.8314744 201.07547068 139.0980835 202.82122803 C136.46385569 205.47358958 133.82183765 208.11798425 131.17840576 210.76116943 C129.48718035 212.45731531 127.7964106 214.15391566 126.10614014 215.85101318 C125.32361374 216.6346524 124.54108734 217.41829163 123.73484802 218.22567749 C119.58440227 222.41155412 115.5988393 226.68216615 111.75022888 231.14706421 C108.68748325 234.67513526 105.36356128 237.94596183 102.06317139 241.24945068 C101.36514404 241.95972412 100.6671167 242.66999756 99.94793701 243.40179443 C99.27053467 244.08113037 98.59313232 244.76046631 97.89520264 245.46038818 C96.98798462 246.37376953 96.98798462 246.37376953 96.06243896 247.30560303 C91.58411622 251.18347689 87.71825166 251.1723831 81.99285889 251.07366943 C78.55281468 250.82375169 75.52824509 249.92574791 72.25067139 248.87445068 C54.38962001 246.05321643 36.29814858 246.77500676 19.25067139 252.87445068 C18.01317139 253.30886475 16.77567139 253.74327881 15.50067139 254.19085693 C2.07926137 259.44857447 -9.47758227 267.86209187 -19.74932861 277.87445068 C-20.55628174 278.63113037 -21.36323486 279.38781006 -22.19464111 280.16741943 C-28.62436794 286.34519771 -34.01643888 293.1040747 -39.42657471 300.15814209 C-41.46121085 302.79813694 -43.53408345 305.40310968 -45.62432861 307.99945068 C-46.64139893 309.27175537 -46.64139893 309.27175537 -47.67901611 310.56976318 C-50.35094213 313.54417139 -53.15758889 316.07858082 -56.74932861 317.87445068 C-63.28266195 318.10778402 -63.28266195 318.10778402 -65.74932861 316.87445068 C-66.5686093 309.83253809 -63.70752079 305.13009747 -60.49932861 298.99945068 C-55.68270896 289.39223062 -52.47241756 280.46082592 -50.74932861 269.87445068 C-50.60237549 269.07909912 -50.45542236 268.28374756 -50.30401611 267.46429443 C-49.97158296 265.25233537 -49.83560932 263.1108465 -49.74932861 260.87445068 C-49.68616455 259.58538818 -49.62300049 258.29632568 -49.55792236 256.96820068 C-48.78666644 234.43260018 -56.97463007 215.48452852 -65.81573486 195.09710693 C-71.9899372 180.75493254 -75.82249113 166.15066134 -75.91729736 150.42913818 C-75.92157745 149.74458557 -75.92585754 149.06003296 -75.93026733 148.35473633 C-75.94019333 146.15290683 -75.94033255 143.95129816 -75.93682861 141.74945068 C-75.93589203 140.99855164 -75.93495544 140.24765259 -75.93399048 139.47399902 C-75.90829348 129.96914738 -75.77956219 120.48139056 -75.06182861 110.99945068 C-74.98194702 109.67469727 -74.98194702 109.67469727 -74.90045166 108.32318115 C-74.82608887 107.51767822 -74.75172607 106.71217529 -74.67510986 105.88226318 C-74.58870239 104.8557666 -74.58870239 104.8557666 -74.50054932 103.80853271 C-73.30741703 100.73671147 -71.51395175 99.58627916 -68.74932861 97.87445068 C-65.67828369 97.49969482 -65.67828369 97.49969482 -62.26885986 97.65960693 C-60.39810791 97.71278076 -60.39810791 97.71278076 -58.48956299 97.76702881 C-55.89039517 97.87947416 -53.29142485 97.99659104 -50.69268799 98.11859131 C-42.59578709 98.33922665 -36.43636066 97.74665017 -29.74932861 92.87445068 C-26.1848605 89.07749127 -24.66433181 84.9072421 -24.53839111 79.74945068 C-24.51003174 78.96054443 -24.48167236 78.17163818 -24.45245361 77.35882568 C-24.40037742 75.70280273 -24.35610364 74.04651598 -24.31964111 72.39007568 C-24.28870361 71.60116943 -24.25776611 70.81226318 -24.22589111 69.99945068 C-24.20607178 69.28015381 -24.18625244 68.56085693 -24.16583252 67.81976318 C-23.63420595 65.3367617 -22.72866963 64.42388958 -20.74932861 62.87445068 C-18.37432861 62.47601318 -18.37432861 62.47601318 -15.74932861 62.49945068 C-14.44995361 62.48784912 -14.44995361 62.48784912 -13.12432861 62.47601318 C-10.27468637 62.95407816 -9.43707163 63.5596824 -7.74932861 65.87445068 C-5.35589289 71.92843517 -5.54784125 78.76969969 -5.49932861 85.18695068 C-5.49006348 85.96369141 -5.48079834 86.74043213 -5.47125244 87.54071045 C-5.49454873 91.76830226 -5.80875364 95.01640282 -7.74932861 98.87445068 C-5.8280408 98.30652284 -3.91241246 97.71942891 -1.99932861 97.12445068 C-0.93198486 96.79960693 0.13535889 96.47476318 1.23504639 96.14007568 C4.43129722 94.79864399 6.0718487 93.54198126 8.25067139 90.87445068 C11.03548347 82.52001443 8.80458818 73.69235363 6.90692139 65.35491943 C5.37136646 57.21099418 5.37136646 57.21099418 7.81317139 53.49945068 C11.19378401 51.24570893 13.27544529 51.22395914 17.25067139 51.87445068 C20.50257968 55.95936011 21.29968886 60.56811399 22.31317139 65.56195068 C22.48236084 66.35907471 22.65155029 67.15619873 22.8258667 67.97747803 C23.31078658 70.27454069 23.78305334 72.57381149 24.25067139 74.87445068 C24.59678467 76.55861084 24.59678467 76.55861084 24.94989014 78.27679443 C25.39434354 80.47384423 25.82472692 82.67373763 26.25067139 84.87445068 C27.69163725 84.4485048 29.1283585 84.00818436 30.56317139 83.56195068 C31.3636792 83.31831787 32.16418701 83.07468506 32.98895264 82.82366943 C35.47562926 81.78003831 36.69584895 81.07875591 38.25067139 78.87445068 C39.73807006 70.25825836 37.83155966 61.08202771 36.43817139 52.56195068 C36.27309082 51.54850586 36.10801025 50.53506104 35.93792725 49.49090576 C34.59139409 38.97789869 34.59139409 38.97789869 29.4430542 30.22576904 C27.14833864 28.81137588 25.14678094 28.03818111 22.55926514 27.29632568 C21.16151855 26.89075439 21.16151855 26.89075439 19.73553467 26.47698975 C18.72990479 26.19565186 17.7242749 25.91431396 16.68817139 25.62445068 C15.6412915 25.32506592 14.59441162 25.02568115 13.51580811 24.71722412 C4.22141434 22.08598468 -5.12296076 19.64647672 -14.48590088 17.27191162 C-20.27197778 15.8016251 -26.00626426 14.24723824 -31.706604 12.47137451 C-34.69928029 11.59685634 -36.65519547 11.2819571 -39.74932861 11.87445068 C-46.30321897 15.53687089 -51.71157233 20.35568679 -57.06182861 25.56195068 C-58.54937031 26.9885035 -60.03765478 28.41428219 -61.52667236 29.83929443 C-62.24580811 30.5300708 -62.96494385 31.22084717 -63.70587158 31.93255615 C-65.98748545 34.10077081 -68.31375417 36.21161864 -70.6585083 38.31097412 C-76.63447681 43.66585596 -82.03758459 49.37057274 -87.36846924 55.34954834 C-88.77875645 56.90694825 -90.2189637 58.43037478 -91.67120361 59.94866943 C-92.15516602 60.45986328 -92.63912842 60.97105713 -93.13775635 61.4977417 C-94.46855697 62.90109411 -95.80596575 64.29817175 -97.14385986 65.69476318 C-104.26584189 73.94506074 -107.9163436 83.82637771 -111.56182861 93.93695068 C-112.11541733 95.4501056 -112.6693846 96.96312207 -113.22369385 98.47601318 C-119.95358351 116.93155452 -126.33976256 135.51190419 -132.72108459 154.09013367 C-134.84830732 160.27788194 -137.00326978 166.45499835 -139.18292236 172.62445068 C-156.62358946 222.12707838 -169.79184099 273.46809076 -158.69464111 326.07366943 C-155.85914327 339.55648752 -155.23213855 352.56960058 -155.25274658 366.31317139 C-155.21594522 375.08410356 -155.14507098 383.71048741 -149.16656494 390.73382568 C-139.815292 399.92374217 -125.40067813 400.59981392 -113.07794189 401.70916748 C-89.90465529 403.89418237 -67.55030381 410.56433914 -45.30841064 417.17205811 C-9.55405644 427.70911843 23.04874547 424.43502846 58.25067139 413.87445068 C58.25067139 373.94445068 58.25067139 334.01445068 58.25067139 292.87445068 C78.05067139 292.87445068 97.85067139 292.87445068 118.25067139 292.87445068 C118.25067139 350.62445068 118.25067139 408.37445068 118.25067139 467.87445068 C98.45067139 467.87445068 78.65067139 467.87445068 58.25067139 467.87445068 C58.25067139 456.65445068 58.25067139 445.43445068 58.25067139 433.87445068 C54.95067139 435.19445068 51.65067139 436.51445068 48.25067139 437.87445068 C6.15861692 450.21236462 -33.33199573 443.84495806 -74.61578369 432.00799561 C-90.42276234 427.49348832 -106.03273241 424.25761945 -122.43682861 422.93695068 C-139.64690686 421.28048065 -155.66448998 417.13485727 -167.74932861 403.87445068 C-175.06825756 394.01117305 -175.93293346 385.25988934 -175.98468018 373.27926636 C-176.10251132 356.44880533 -178.41596758 340.32368836 -181.37432861 323.78460693 C-185.95845411 298.03769706 -185.5608302 269.56259751 -180.74932861 243.87445068 C-180.57192139 242.91442139 -180.39451416 241.95439209 -180.21173096 240.965271 C-176.19769409 220.12223987 -169.40539822 199.98977069 -162.74932861 179.87445068 C-162.46811157 179.0232666 -162.18689453 178.17208252 -161.89715576 177.29510498 C-154.22399959 154.10380853 -146.10086239 131.07958876 -137.74932861 108.12445068 C-137.35027313 107.02357117 -136.95121765 105.92269165 -136.54006958 104.78845215 C-123.37119657 68.51937806 -123.37119657 68.51937806 -113.74932861 56.87445068 C-113.08973145 56.07490967 -113.08973145 56.07490967 -112.41680908 55.25921631 C-108.9358031 51.06431113 -105.36583097 46.95283074 -101.74932861 42.87445068 C-101.29106689 42.35689209 -100.83280518 41.8393335 -100.36065674 41.30609131 C-68.38422327 5.43122474 -48.56424029 -13.7431939 0 0 Z " fill="#16242B" transform="translate(408.74932861328125,179.12554931640625)"/>
<path d="M0 0 C20.13 0 40.26 0 61 0 C61 107.58 61 215.16 61 326 C40.87 326 20.74 326 0 326 C0 218.42 0 110.84 0 0 Z " fill="#2593D0" transform="translate(712,321)"/>
<path d="M0 0 C20.13 0 40.26 0 61 0 C61 79.86 61 159.72 61 242 C40.87 242 20.74 242 0 242 C0 162.14 0 82.28 0 0 Z " fill="#2593D0" transform="translate(630,405)"/>
<path d="M0 0 C20.13 0 40.26 0 61 0 C61 70.29 61 140.58 61 213 C40.87 213 20.74 213 0 213 C0 142.71 0 72.42 0 0 Z " fill="#2694D1" transform="translate(548,434)"/>
<path d="M0 0 C19.8 0 39.6 0 60 0 C60 57.75 60 115.5 60 175 C40.2 175 20.4 175 0 175 C0 163.78 0 152.56 0 141 C3.0525 139.370625 6.105 137.74125 9.25 136.0625 C28.12721641 126.17408683 28.12721641 126.17408683 41 110 C40.92466753 107.3727086 40.92466753 107.3727086 40 105 C37.14044405 102.66582786 37.14044405 102.66582786 33.6875 103.15234375 C29.75470197 104.05638736 27.34546779 105.33654422 24 107.5625 C19.03123769 110.75381888 14.02313167 113.72036714 8.8125 116.5 C8.16474609 116.85006104 7.51699219 117.20012207 6.84960938 117.56079102 C2.24978282 120 2.24978282 120 0 120 C0 80.4 0 40.8 0 0 Z " fill="#2593D0" transform="translate(467,472)"/>
<path d="M0 0 C5.94 0 11.88 0 18 0 C18 31.02 18 62.04 18 94 C12.39 94 6.78 94 1 94 C0.505 90.535 0.505 90.535 0 87 C-0.44730469 87.40992188 -0.89460937 87.81984375 -1.35546875 88.2421875 C-1.96003906 88.78101563 -2.56460938 89.31984375 -3.1875 89.875 C-3.77917969 90.40867187 -4.37085938 90.94234375 -4.98046875 91.4921875 C-11.47079397 96.33796223 -19.29925502 95.7518713 -27 95 C-34.45125523 92.8837254 -39.71960114 88.36367809 -44 82 C-49.89434501 71.23563214 -50.6057089 58.66264611 -48.38671875 46.69140625 C-45.73289534 38.44935559 -40.45834708 31.49275568 -32.6875 27.5 C-25.57720734 24.60767756 -18.03030733 23.47829261 -10.5078125 25.75390625 C-6.44095459 27.71060204 -4.31555201 29.68444799 -1 33 C-0.67 22.11 -0.34 11.22 0 0 Z " fill="#16232B" transform="translate(906,717)"/>
<path d="M0 0 C8.84873643 6.05898701 13.97062242 14.48413437 16 25 C16.99991085 36.21328601 14.79277259 47.83151679 8 57 C2.4209677 63.1417244 -3.06448099 66.5376563 -11.3359375 67.3125 C-18.72641766 67.56462725 -23.79675335 67.09648364 -30 63 C-30.99 62.01 -31.98 61.02 -33 60 C-33.33 70.23 -33.66 80.46 -34 91 C-39.94 91 -45.88 91 -52 91 C-52 60.64 -52 30.28 -52 -1 C-46.06 -1 -40.12 -1 -34 -1 C-33.67 0.65 -33.34 2.3 -33 4 C-31.700625 2.824375 -31.700625 2.824375 -30.375 1.625 C-22.15219734 -5.0940957 -9.22128929 -4.95248267 0 0 Z " fill="#17252C" transform="translate(691,745)"/>
<path d="M0 0 C7.8746799 6.46953255 12.11194149 13.77845744 14.1015625 23.7265625 C7.5015625 23.7265625 0.9015625 23.7265625 -5.8984375 23.7265625 C-7.2184375 21.0865625 -8.5384375 18.4465625 -9.8984375 15.7265625 C-16.80463619 10.82943979 -23.61231475 9.88472129 -31.8984375 10.7265625 C-38.08569881 12.23476423 -42.57309077 14.64465182 -46.64453125 19.5546875 C-50.30894855 25.90177791 -51.42806328 31.76112555 -51.3359375 39.0390625 C-51.32908936 39.87139404 -51.32224121 40.70372559 -51.31518555 41.5612793 C-51.10599021 49.61334098 -49.4453871 56.56215898 -44.6484375 63.1640625 C-38.3181484 69.06274098 -32.81038145 70.41056287 -24.15625 70.109375 C-17.9893974 69.38473285 -12.26488041 67.65087439 -7.9609375 62.9765625 C-5.36068105 59.12492459 -5.36068105 59.12492459 -2.8984375 51.7265625 C-9.8284375 51.7265625 -16.7584375 51.7265625 -23.8984375 51.7265625 C-23.8984375 46.7765625 -23.8984375 41.8265625 -23.8984375 36.7265625 C-10.6984375 36.7265625 2.5015625 36.7265625 16.1015625 36.7265625 C16.1015625 52.8965625 16.1015625 69.0665625 16.1015625 85.7265625 C10.8215625 85.7265625 5.5415625 85.7265625 0.1015625 85.7265625 C-0.2284375 81.4365625 -0.5584375 77.1465625 -0.8984375 72.7265625 C-2.4453125 74.5828125 -2.4453125 74.5828125 -4.0234375 76.4765625 C-10.07945266 83.35950342 -16.3930589 86.51231327 -25.46484375 87.16796875 C-39.0489269 87.67689813 -48.86616444 85.4745022 -59.3359375 76.1015625 C-71.26199122 62.91878484 -72.79413654 48.17113042 -72.08935547 31.27685547 C-71.25611136 20.14633384 -65.17541164 9.4673187 -57.1484375 1.8515625 C-41.72050304 -10.65919917 -16.09664882 -11.5463594 0 0 Z " fill="#16242B" transform="translate(174.8984375,725.2734375)"/>
<path d="M0 0 C7.30691865 5.97430439 12.00918507 13.30696522 14.75 22.3125 C14.75 22.9725 14.75 23.6325 14.75 24.3125 C-2.46473242 25.53968885 -2.46473242 25.53968885 -6.63671875 22.671875 C-8.02739119 20.6144418 -9.11571386 18.51782212 -10.25 16.3125 C-17.18378339 10.90414896 -23.65067965 10.56151384 -32.25 11.3125 C-37.75937342 12.64234876 -42.85763907 14.63130215 -46.22265625 19.4453125 C-51.60045974 29.21941923 -53.11005433 39.55911027 -50.484375 50.50390625 C-47.80889855 58.30737922 -44.63273257 64.17816976 -37.25 68.3125 C-31.051609 71.19547256 -23.92714619 71.55707256 -17.45703125 69.3671875 C-8.7857266 65.29410792 -6.69083339 61.48805571 -3.25 52.3125 C-10.18 52.3125 -17.11 52.3125 -24.25 52.3125 C-24.25 47.3625 -24.25 42.4125 -24.25 37.3125 C-11.38 37.3125 1.49 37.3125 14.75 37.3125 C14.75 53.24722227 13.2547782 65.39914536 2.0234375 77.11328125 C-7.43314287 85.81419881 -18.63644347 87.97669729 -31.140625 87.62109375 C-41.46924617 87.04004853 -49.81137289 83.43024515 -57.25 76.3125 C-57.88679688 75.7040625 -58.52359375 75.095625 -59.1796875 74.46875 C-67.81359278 65.42723546 -71.66234329 53.40027859 -71.5625 41.0625 C-71.55686035 40.32306152 -71.5512207 39.58362305 -71.54541016 38.82177734 C-71.26695848 26.1094932 -67.33716371 14.62422405 -58.75 5.0625 C-43.46843886 -9.27320049 -17.34109477 -11.79063072 0 0 Z " fill="#16242B" transform="translate(504.25,724.6875)"/>
<path d="M0 0 C6.10749943 4.30378932 8.95850228 9.9354204 11 17 C11.48432019 20.84282669 11.47061846 24.60835178 11.390625 28.4765625 C11.38496521 29.52782318 11.37930542 30.57908386 11.37347412 31.66220093 C11.35128043 34.983619 11.30111589 38.30391409 11.25 41.625 C11.22991303 43.89191138 11.21166614 46.15883986 11.1953125 48.42578125 C11.1514714 53.95094625 11.08256273 59.47528347 11 65 C5.39 65 -0.22 65 -6 65 C-6.33 63.02 -6.66 61.04 -7 59 C-7.680625 59.598125 -8.36125 60.19625 -9.0625 60.8125 C-16.74376201 66.53258873 -23.55998297 66.81264298 -33 66 C-39.24738017 64.60084715 -44.20383668 60.51462865 -47.875 55.375 C-49.72061042 49.83816874 -50.18682446 44.25277814 -48.15625 38.6875 C-44.57037008 32.29106555 -39.25886049 29.16387875 -32.5 26.75 C-23.94099543 24.91592759 -15.73486132 24.88958743 -7 25 C-8.13233075 17.53040983 -8.13233075 17.53040983 -13 12 C-16.06429776 10.46785112 -18.6165642 10.77061452 -22 11 C-25.336336 12.44069055 -26.666317 13.23333734 -28.12890625 16.59375 C-30 19 -30 19 -33.79296875 19.48828125 C-35.25860885 19.45512197 -36.72384139 19.39558979 -38.1875 19.3125 C-38.93708984 19.28994141 -39.68667969 19.26738281 -40.45898438 19.24414062 C-42.3068447 19.18529157 -44.15367667 19.09560938 -46 19 C-45.9713928 12.82084476 -44.85076272 8.59476358 -40.8828125 3.79296875 C-30.19892304 -6.38110856 -12.57259576 -6.9801726 0 0 Z " fill="#15232A" transform="translate(619,746)"/>
<path d="M0 0 C7.42361028 4.1048198 12.1365617 9.80083222 14.52830505 17.92193604 C15.03480814 20.30182245 15.1122523 22.43745667 15.10571289 24.87011719 C15.10563736 25.81079041 15.10556183 26.75146362 15.10548401 27.72064209 C15.10032272 28.72806458 15.09516144 29.73548706 15.08984375 30.7734375 C15.0884288 31.81099182 15.08701385 32.84854614 15.08555603 33.9175415 C15.07996197 37.22891126 15.06741053 40.54021321 15.0546875 43.8515625 C15.04967173 46.09765527 15.04510896 48.34374911 15.04101562 50.58984375 C15.02999448 56.09377609 15.01273389 61.5976578 14.9921875 67.1015625 C9.3821875 67.1015625 3.7721875 67.1015625 -2.0078125 67.1015625 C-2.3378125 65.1215625 -2.6678125 63.1415625 -3.0078125 61.1015625 C-4.3071875 62.2771875 -4.3071875 62.2771875 -5.6328125 63.4765625 C-11.53487994 68.81652828 -18.82852351 68.53231605 -26.3671875 68.4140625 C-32.66353732 67.87360329 -36.68531505 65.83196915 -40.8828125 61.1640625 C-44.95551737 55.29457607 -46.03562162 50.19885496 -45.0078125 43.1015625 C-43.0101532 37.74969385 -39.52427469 33.89784598 -34.5546875 31.1328125 C-24.41068289 27.02542413 -13.78271004 26.6533002 -3.0078125 27.1015625 C-4.14014325 19.63197233 -4.14014325 19.63197233 -9.0078125 14.1015625 C-12.07211026 12.56941362 -14.6243767 12.87217702 -18.0078125 13.1015625 C-21.3441485 14.54225305 -22.6741295 15.33489984 -24.13671875 18.6953125 C-26.0078125 21.1015625 -26.0078125 21.1015625 -29.80078125 21.58984375 C-31.26642135 21.55668447 -32.73165389 21.49715229 -34.1953125 21.4140625 C-34.94490234 21.39150391 -35.69449219 21.36894531 -36.46679688 21.34570312 C-38.3146572 21.28685407 -40.16148917 21.19717188 -42.0078125 21.1015625 C-41.7545689 14.13736357 -39.87014823 9.20701501 -35.0078125 4.1015625 C-24.88449793 -2.51631861 -11.44840791 -4.6225647 0 0 Z " fill="#15232A" transform="translate(244.0078125,743.8984375)"/>
<path d="M0 0 C5.61 0 11.22 0 17 0 C17 10.89 17 21.78 17 33 C17.66 33 18.32 33 19 33 C19 32.34 19 31.68 19 31 C25.65170637 25.93203325 31.76944187 24.15514138 40 25 C47.06509538 26.32170152 52.39010821 29.48655756 57 35 C60.77069103 42.37843642 61.5603664 49.40853966 61.390625 57.57421875 C61.38496521 58.62406448 61.37930542 59.67391022 61.37347412 60.75556946 C61.35131214 64.06670231 61.30115438 67.37670134 61.25 70.6875 C61.22990891 72.94985402 61.21166275 75.21222522 61.1953125 77.47460938 C61.15151364 82.98350126 61.0826282 88.49155927 61 94 C55.06 94 49.12 94 43 94 C42.98541748 92.66300049 42.97083496 91.32600098 42.95581055 89.94848633 C42.89777876 84.98158201 42.82054565 80.01512871 42.73754883 75.04858398 C42.70432254 72.90022102 42.67628347 70.75177125 42.65356445 68.60327148 C42.61997669 65.51248224 42.56765779 62.42248688 42.51171875 59.33203125 C42.50532883 58.37351761 42.4989389 57.41500397 42.49235535 56.42744446 C42.38440895 51.51630886 42.275078 47.94212227 39 44 C35.0743073 41.71001259 31.47589017 41.52885367 27 42 C22.02136971 44.48931514 20.01475037 46.87108423 18 52 C17.55264365 55.25800042 17.51192947 58.48806839 17.48828125 61.7734375 C17.47033005 62.6971817 17.45237885 63.6209259 17.43388367 64.57266235 C17.37994576 67.50672926 17.345938 70.44063501 17.3125 73.375 C17.27931234 75.37111609 17.24482135 77.36721097 17.20898438 79.36328125 C17.12422874 84.24207093 17.05733883 89.12081419 17 94 C11.39 94 5.78 94 0 94 C0 62.98 0 31.96 0 0 Z " fill="#16232A" transform="translate(715,717)"/>
<path d="M0 0 C8.86144793 4.81968065 14.98887869 11.69143911 18.3125 21.1875 C19 25.4375 19 25.4375 19 37.4375 C3.49 37.4375 -12.02 37.4375 -28 37.4375 C-25.3376903 46.71293656 -25.3376903 46.71293656 -18.8125 52.75 C-11.97063403 54.42245613 -6.73649602 53.83205144 -0.53125 50.5078125 C1.16620619 49.50249221 1.16620619 49.50249221 2 47.4375 C7.28 47.4375 12.56 47.4375 18 47.4375 C15.76044601 55.27593897 12.71173173 60.33320021 5.8359375 64.86328125 C-3.28603685 69.56092722 -14.67054515 70.28623709 -24.50390625 67.4140625 C-33.18182515 63.40204891 -39.54913052 57.37727336 -43.5 48.625 C-46.7009224 38.38781574 -47.0357968 25.41333153 -42.4375 15.625 C-33.70641141 1.12771238 -16.49019771 -6.76966011 0 0 Z " fill="#15232A" transform="translate(830,743.5625)"/>
<path d="M0 0 C6.50266236 4.3918505 9.78022743 8.75329746 11.55931091 16.4058075 C11.99264791 18.95672066 12.12049224 21.29737916 12.11352539 23.88208008 C12.11344986 24.82267776 12.11337433 25.76327545 12.11329651 26.7323761 C12.10813522 27.7346373 12.10297394 28.7368985 12.09765625 29.76953125 C12.0962413 30.80567062 12.09482635 31.84181 12.09336853 32.90934753 C12.08778242 36.21042804 12.07523242 39.51144008 12.0625 42.8125 C12.05748321 45.05403548 12.05292061 47.29557202 12.04882812 49.53710938 C12.03781753 55.02476586 12.02056239 60.51237133 12 66 C6.06 66 0.12 66 -6 66 C-6.00410889 64.63270752 -6.00821777 63.26541504 -6.01245117 61.85668945 C-6.03424291 56.77785684 -6.08853386 51.69979889 -6.15258789 46.62133789 C-6.17576738 44.42447338 -6.19016347 42.22749775 -6.19555664 40.03051758 C-6.20484627 36.86990109 -6.24583877 33.71103224 -6.29296875 30.55078125 C-6.2890361 29.57039383 -6.28510345 28.59000641 -6.28105164 27.57991028 C-6.38124536 22.88431498 -6.45712061 20.70206005 -9.40380859 16.89135742 C-13.24290171 14.0945308 -16.33033463 13.74424094 -21 14 C-24.29782148 14.9333457 -26.13854741 15.75830219 -28.11602783 18.60864258 C-31.01030829 24.06371045 -31.60058508 28.62933569 -31.609375 34.75 C-31.62591125 35.64871826 -31.64244751 36.54743652 -31.65948486 37.47338867 C-31.70768104 40.31566392 -31.72927224 43.1574053 -31.75 46 C-31.77818347 47.93882853 -31.8081142 49.87763251 -31.83984375 51.81640625 C-31.91343212 56.54422682 -31.96317962 61.27175594 -32 66 C-37.61 66 -43.22 66 -49 66 C-49 43.89 -49 21.78 -49 -1 C-43.39 -1 -37.78 -1 -32 -1 C-31.67 0.98 -31.34 2.96 -31 5 C-30.154375 4.236875 -29.30875 3.47375 -28.4375 2.6875 C-19.83005593 -4.39151942 -9.8314735 -4.92443717 0 0 Z " fill="#15222A" transform="translate(348,745)"/>
<path d="M0 0 C4.20130944 3.20027542 7.75172132 6.72949001 9 12 C9 13.65 9 15.3 9 17 C3.72 17 -1.56 17 -7 17 C-7.66 15.68 -8.32 14.36 -9 13 C-13.05441671 10.29419224 -17.29497777 10.4561167 -22 11 C-24.63926464 11.91313108 -24.63926464 11.91313108 -26 14 C-26.66666667 17 -26.66666667 17 -26 20 C-21.98748463 24.43140433 -15.20150052 24.41519651 -9.6171875 25.28515625 C-2.22166143 26.58437029 3.16811028 29.16811028 8.5 34.5 C11.01943824 40.37868923 11.25289855 47.12740448 9.26953125 53.2578125 C5.78140946 59.83541359 0.23771133 62.90786533 -6.56640625 65.234375 C-15.65655873 67.2613032 -26.95877174 67.84373058 -35.30859375 63.203125 C-39.98551108 59.87635702 -44.28483876 55.72161576 -45.40234375 49.90625 C-45.65458714 47.94358907 -45.83290371 45.97173616 -46 44 C-43.41414795 43.83763255 -40.83848046 43.71904514 -38.25 43.625 C-37.52039063 43.57472656 -36.79078125 43.52445313 -36.0390625 43.47265625 C-33.890625 43.4140625 -33.890625 43.4140625 -30 44 C-27.671875 46.8984375 -27.671875 46.8984375 -26 50 C-21.75774644 52.82816904 -17.98209319 52.54032271 -13 52 C-10.51949071 50.83567931 -8.90574048 49.90574048 -7 48 C-6.58282721 45.58462162 -6.58282721 45.58462162 -7 43 C-10.39001978 39.46067883 -14.55884895 39.20362223 -19.1875 38.5625 C-28.61415102 37.05970056 -37.05248393 35.08458963 -43 27 C-45.4103828 21.85054584 -46.02286884 16.99248605 -44.16015625 11.54296875 C-40.80155845 4.00025922 -36.37642991 -0.07437084 -28.875 -3.375 C-18.85908936 -4.99046946 -9.05850139 -5.01295708 0 0 Z " fill="#16232A" transform="translate(414,746)"/>
<path d="M0 0 C0 5.28 0 10.56 0 16 C-2.02125 16.061875 -4.0425 16.12375 -6.125 16.1875 C-12.22325961 16.65200291 -15.01751853 17.37171072 -19 22 C-20.69739006 24.86563255 -21.25889362 26.99211354 -21.31884766 30.30957031 C-21.33871735 31.15013977 -21.35858704 31.99070923 -21.37905884 32.85675049 C-21.39638565 34.20383087 -21.39638565 34.20383087 -21.4140625 35.578125 C-21.43342865 36.5046991 -21.4527948 37.43127319 -21.4727478 38.38592529 C-21.53244767 41.34052371 -21.57889068 44.29516129 -21.625 47.25 C-21.6631886 49.25522517 -21.70224085 51.26043409 -21.7421875 53.265625 C-21.8381414 58.17695111 -21.92220803 63.088354 -22 68 C-27.94 68 -33.88 68 -40 68 C-40 45.89 -40 23.78 -40 1 C-34.39 1 -28.78 1 -23 1 C-22.67 2.98 -22.34 4.96 -22 7 C-21.52949219 6.57847656 -21.05898438 6.15695312 -20.57421875 5.72265625 C-19.95160156 5.17480469 -19.32898438 4.62695312 -18.6875 4.0625 C-18.07261719 3.51722656 -17.45773437 2.97195313 -16.82421875 2.41015625 C-12.03126885 -1.2948864 -5.72738147 -0.06158475 0 0 Z " fill="#17252D" transform="translate(569,743)"/>
<path d="M0 0 C5.94 0 11.88 0 18 0 C18 22.11 18 44.22 18 67 C12.06 67 6.12 67 0 67 C0 44.89 0 22.78 0 0 Z " fill="#16232B" transform="translate(270,744)"/>
<path d="M0 0 C4.80333 2.167795 7.31021312 4.56804442 9.8359375 9.31640625 C11.96574445 15.7058271 12.03198014 23.71649658 9.1484375 29.87890625 C6.60630012 34.15186057 3.57393684 36.73707314 -1.1640625 38.31640625 C-6.07390608 38.83189757 -10.0161651 38.84784023 -14.5390625 36.75390625 C-19.13561763 32.48567648 -21.75263948 27.52558022 -22.3671875 21.23828125 C-22.5028931 14.95058825 -21.94078715 9.27310379 -17.4765625 4.51953125 C-12.04411494 -0.23386036 -7.22155185 -2.28117613 0 0 Z " fill="#E3EFF7" transform="translate(678.1640625,757.68359375)"/>
<path d="M0 0 C5.72614902 2.91709478 8.96980663 6.9094199 11 13 C11.73858662 20.99662057 10.55410308 27.21004058 6.0625 33.875 C3.35091328 36.66875602 1.29522028 37.83173876 -2.5859375 38.3359375 C-8.57011297 38.41974948 -12.40786629 38.25612393 -17 34 C-21.96140129 27.42949559 -22.76477179 22.05703237 -22 14 C-20.2843624 7.60802448 -17.43091145 3.69764184 -12 0 C-7.8026454 -1.3991182 -4.28778767 -0.93978908 0 0 Z " fill="#E4EFF7" transform="translate(896,758)"/>
<path d="M0 0 C8.19690561 -0.0231271 16.39379768 -0.04091696 24.59072781 -0.05181217 C28.39651577 -0.0570402 32.20228148 -0.06413638 36.00805664 -0.07543945 C39.67792544 -0.0862712 43.34777278 -0.09227744 47.01765633 -0.09487724 C48.42074992 -0.09673097 49.82384229 -0.1003506 51.2269268 -0.10573006 C53.1856968 -0.11294419 55.1444882 -0.11340809 57.10327148 -0.11352539 C58.22023911 -0.115746 59.33720673 -0.11796661 60.48802185 -0.12025452 C63 0 63 0 64 1 C64.09826258 2.7401109 64.12555602 4.48425164 64.12584114 6.2271347 C64.12844889 7.36757941 64.13105664 8.50802411 64.13374341 9.68302774 C64.13151268 10.95177288 64.12928196 12.22051801 64.12698364 13.52770996 C64.12813451 14.87667047 64.12972181 16.22563067 64.13171089 17.57459021 C64.13590888 21.29872331 64.13381141 25.02283099 64.13072467 28.74696422 C64.12847269 32.7565483 64.13194917 36.76612786 64.13470459 40.77571106 C64.13916346 48.63731391 64.1381853 56.49890724 64.13529195 64.36051047 C64.13303837 70.7468261 64.13272519 77.13313905 64.13381577 83.51945496 C64.133969 84.42657387 64.13412223 85.33369278 64.13428011 86.26830015 C64.13459982 88.11079188 64.13492403 89.95328362 64.1352527 91.79577535 C64.13810783 109.09415206 64.13481995 126.39252347 64.12945233 143.69089931 C64.12498426 158.5506087 64.12576019 173.41031028 64.13037109 188.27001953 C64.13571627 205.50428283 64.13783314 222.73854149 64.13475883 239.9728055 C64.13444026 241.80871868 64.13412589 243.64463186 64.13381577 245.48054504 C64.13358435 246.83568758 64.13358435 246.83568758 64.13334826 248.21820673 C64.13248294 254.60072843 64.13394632 260.98324719 64.13629532 267.36576843 C64.13909289 275.13836056 64.13835597 282.91094259 64.13301457 290.68353355 C64.13037697 294.65319238 64.12937348 298.62283433 64.13266373 302.59249306 C64.1356255 306.22057985 64.13403589 309.84863398 64.12868617 313.47671777 C64.12702529 315.42346929 64.13032061 317.37022304 64.13374341 319.31697226 C64.12983178 321.02763931 64.12983178 321.02763931 64.12584114 322.7728653 C64.12567879 323.76529189 64.12551644 324.75771848 64.12534916 325.7802186 C64 328 64 328 63 329 C61.06693502 329.09396057 59.13041162 329.11743517 57.19506836 329.11352539 C55.33325172 329.11341209 55.33325172 329.11341209 53.43382263 329.11329651 C52.0691626 329.10818911 50.70450298 329.1029731 49.33984375 329.09765625 C47.95121817 329.095792 46.56259193 329.09436813 45.17396545 329.09336853 C41.51278885 329.08954387 37.8516517 329.07971403 34.19049072 329.06866455 C30.45707737 329.05844932 26.72365766 329.05387067 22.99023438 329.04882812 C15.66013823 329.03809171 8.33007464 329.02101591 1 329 C1.33 328.34 1.66 327.68 2 327 C21.8 327 41.6 327 62 327 C62 219.42 62 111.84 62 1 C41.54 1 21.08 1 0 1 C0 0.67 0 0.34 0 0 Z " fill="#F2F7FA" transform="translate(711,320)"/>
<path d="M0 0 C20.13 0 40.26 0 61 0 C61 70.29 61 140.58 61 213 C40.87 213 20.74 213 0 213 C0 142.71 0 72.42 0 0 Z M1 2 C1 71.3 1 140.6 1 212 C20.14 212 39.28 212 59 212 C59 142.7 59 73.4 59 2 C39.86 2 20.72 2 1 2 Z " fill="#1A8ACD" transform="translate(548,434)"/>
<path d="M0 0 C4.34136085 2.25416813 7.35319814 4.88275266 10 9 C10.33 10.98 10.66 12.96 11 15 C1.1 15 -8.8 15 -19 15 C-18.05456228 9.3273737 -17.5092006 7.26794667 -14 3 C-9.52576109 -0.05061744 -5.29042342 -0.95227622 0 0 Z " fill="#E4EFF6" transform="translate(821,755)"/>
<path d="M0 0 C-0.47254711 6.85193304 -1.77106132 11.15093646 -7.125 15.875 C-11.44490005 17.56539567 -15.43097694 17.78518399 -20 17 C-23.1875 14.9375 -23.1875 14.9375 -25 12 C-25.06389256 8.29423129 -24.89564144 6.0822334 -22.5 3.1875 C-15.28846717 -0.2379781 -7.84978025 -0.26410476 0 0 Z " fill="#E3EEF5" transform="translate(613,782)"/>
<path d="M0 0 C0.11080679 6.83836179 -1.56504161 10.48676802 -6.2109375 15.46875 C-9.66599017 18.42591298 -13.43201188 18.34102674 -17.76953125 18.27734375 C-21.22172229 17.84808707 -22.82555064 16.66545406 -25 14 C-25.625 11.0625 -25.625 11.0625 -25 8 C-21.5990157 3.46535426 -18.48733406 2.06206466 -13 1 C-8.6833612 0.48654089 -4.35110149 0 0 0 Z " fill="#E5F0F7" transform="translate(242,781)"/>
<path d="M0 0 C2.92937654 1.81310142 5.43647949 3.87295899 7 7 C7.5098625 11.4188083 7.29172207 13.50771901 5 17.375 C1.84874007 20.13235244 0.17896242 21.14847334 -3.9296875 21.3515625 C-7.27815825 20.78295426 -9.3090018 19.30490419 -11.703125 16.94921875 C-13.66661984 13.99806234 -13.8406353 11.60590718 -13.5703125 8.12109375 C-12.65886362 4.73125307 -10.72886865 3.07913802 -8 1 C-5.09704195 -0.45147903 -3.22738221 -0.37239025 0 0 Z " fill="#152229" transform="translate(282,715)"/>
<path d="M0 0 C13.2 0 26.4 0 40 0 C40 16.17 40 32.34 40 49 C34.72 49 29.44 49 24 49 C24 44.38 24 39.76 24 35 C24.66 35 25.32 35 26 35 C26 39.29 26 43.58 26 48 C29.96 48 33.92 48 38 48 C38 32.82 38 17.64 38 2 C25.79 2 13.58 2 1 2 C1 5.96 1 9.92 1 14 C0.67 14 0.34 14 0 14 C0 9.38 0 4.76 0 0 Z " fill="#071017" transform="translate(151,762)"/>
<path d="M0 0 C1.97119141 -0.34057617 1.97119141 -0.34057617 4.3515625 -0.29296875 C5.62773437 -0.2784668 5.62773437 -0.2784668 6.9296875 -0.26367188 C7.81914062 -0.23853516 8.70859375 -0.21339844 9.625 -0.1875 C10.97078125 -0.16719727 10.97078125 -0.16719727 12.34375 -0.14648438 C14.56309789 -0.11106925 16.78125188 -0.06168461 19 0 C19 0.99 19 1.98 19 3 C13.06 3 7.12 3 1 3 C1 25.11 1 47.22 1 70 C0.01 70 -0.98 70 -2 70 C-2.04631461 61.31611496 -2.08186471 52.63227237 -2.10362434 43.94829082 C-2.1140672 39.91608509 -2.12823551 35.88396378 -2.15087891 31.85180664 C-2.17258947 27.96147137 -2.18456484 24.07121736 -2.18975449 20.18082619 C-2.19345346 18.69564344 -2.20067654 17.2104652 -2.21146011 15.725317 C-2.22595148 13.64710203 -2.22797896 11.56922406 -2.22705078 9.4909668 C-2.231492 8.30738083 -2.23593323 7.12379486 -2.24050903 5.90434265 C-2 3 -2 3 0 0 Z " fill="#CDDAE3" transform="translate(269,741)"/>
<path d="M0 0 C13.86 0 27.72 0 42 0 C42 17.16 42 34.32 42 52 C36.06 52 30.12 52 24 52 C22.79727181 49.59454362 22.89928528 48.05003047 22.9375 45.375 C22.94652344 44.55773437 22.95554688 43.74046875 22.96484375 42.8984375 C22.97644531 42.27195312 22.98804688 41.64546875 23 41 C22.34 40.67 21.68 40.34 21 40 C22.98 37.525 22.98 37.525 25 35 C25 39.95 25 44.9 25 50 C30.28 50 35.56 50 41 50 C41 33.83 41 17.66 41 1 C27.47 1 13.94 1 0 1 C0 0.67 0 0.34 0 0 Z " fill="#F8FCFC" transform="translate(150,761)"/>
<path d="M0 0 C12.87 0 25.74 0 39 0 C39 3.3 39 6.6 39 10 C38.67 10 38.34 10 38 10 C38 7.36 38 4.72 38 2 C26.12 2 14.24 2 2 2 C2 5.63 2 9.26 2 13 C8.27 13 14.54 13 21 13 C21 13.33 21 13.66 21 14 C14.07 14 7.14 14 0 14 C0 9.38 0 4.76 0 0 Z " fill="#0A1319" transform="translate(480,762)"/>
<path d="M0 0 C0.33 0 0.66 0 1 0 C1.19328662 6.79898598 1.37076773 13.59825096 1.53710938 20.39794922 C1.59561503 22.71249799 1.65777861 25.02695725 1.72363281 27.34130859 C1.8175015 30.66226912 1.89833765 33.98332633 1.9765625 37.3046875 C2.00875885 38.34430634 2.0409552 39.38392517 2.0741272 40.45504761 C2.10438492 41.89631516 2.10438492 41.89631516 2.13525391 43.36669922 C2.15746002 44.21497284 2.17966614 45.06324646 2.20254517 45.93722534 C2 48 2 48 0 50 C-2.87342061 50.19856972 -5.62861988 50.27828946 -8.5 50.25 C-9.67755859 50.26160156 -9.67755859 50.26160156 -10.87890625 50.2734375 C-16.74669213 50.25330787 -16.74669213 50.25330787 -19 48 C-19.625 45.375 -19.625 45.375 -20 43 C-19.01 42.34 -18.02 41.68 -17 41 C-17 43.31 -17 45.62 -17 48 C-11.39 48 -5.78 48 0 48 C0 32.16 0 16.32 0 0 Z " fill="#F8FBFD" transform="translate(259,763)"/>
<path d="M0 0 C0.83772949 0.03552979 1.67545898 0.07105957 2.53857422 0.10766602 C5.64323576 0.23679338 8.74804148 0.36112048 11.85302734 0.48217773 C13.85920071 0.56187238 15.86515076 0.64712518 17.87109375 0.73242188 C19.12792969 0.78076172 20.38476562 0.82910156 21.6796875 0.87890625 C22.84226074 0.9260376 24.00483398 0.97316895 25.20263672 1.02172852 C27.95564788 1.20561475 27.95564788 1.20561475 30 0 C30 1.32 30 2.64 30 4 C20.1 4 10.2 4 0 4 C0 2.68 0 1.36 0 0 Z " fill="#DBE4EA" transform="translate(802,766)"/>
<path d="M0 0 C2.64 0 5.28 0 8 0 C8 5.28 8 10.56 8 16 C4.74479167 16.22786458 1.48958333 16.45572917 -1.765625 16.68359375 C-4.30977376 16.93247787 -6.55953248 17.28114942 -9 18 C-6.78770401 15.45585961 -5.34873329 14.45253153 -2 14 C0.67286275 13.92817643 3.32490846 13.95541514 6 14 C6 9.71 6 5.42 6 1 C4.02 1 2.04 1 0 1 C0 0.67 0 0.34 0 0 Z " fill="#060F16" transform="translate(561,743)"/>
<path d="M0 0 C1.31484375 0.4021875 1.31484375 0.4021875 2.65625 0.8125 C0.65625 2.8125 0.65625 2.8125 -1.625 3.03125 C-5.6330485 4.18298807 -7.42096621 7.11605417 -9.84375 10.3125 C-14.58793605 16.57163621 -14.58793605 16.57163621 -18.1875 17.71875 C-18.8990625 17.7496875 -19.610625 17.780625 -20.34375 17.8125 C-16.6662145 13.33982169 -12.81486148 9.02653419 -8.84375 4.8125 C-8.39346436 4.3074292 -7.94317871 3.8023584 -7.47924805 3.28198242 C-4.8540546 0.55456402 -3.86012903 -0.21645583 0 0 Z " fill="#DFE6EA" transform="translate(735.34375,283.1875)"/>
<path d="M0 0 C0.33 0 0.66 0 1 0 C1.66 5.94 2.32 11.88 3 18 C3.99 18 4.98 18 6 18 C4.02 19.65 2.04 21.3 0 23 C0 15.41 0 7.82 0 0 Z " fill="#F1F7F9" transform="translate(381,413)"/>
<path d="M0 0 C0.74958984 0.00451172 1.49917969 0.00902344 2.27148438 0.01367188 C4.11852383 0.02543646 5.96552213 0.04337135 7.8125 0.0625 C4.84901571 2.0381562 4.13229627 2.32626859 0.80078125 2.4765625 C-0.33520508 2.53457031 -0.33520508 2.53457031 -1.49414062 2.59375 C-2.27982422 2.6246875 -3.06550781 2.655625 -3.875 2.6875 C-4.67228516 2.72617187 -5.46957031 2.76484375 -6.29101562 2.8046875 C-8.25613475 2.89882494 -10.2217854 2.98174632 -12.1875 3.0625 C-9.97894074 -1.35461851 -4.30476406 -0.04887505 0 0 Z " fill="#131D24" transform="translate(817.1875,741.9375)"/>
<path d="M0 0 C0.721875 0.37125 1.44375 0.7425 2.1875 1.125 C5.60988311 2.18974141 6.88228073 1.60339848 10 0 C6.96086531 3.36947542 3.93142307 5.30422175 -0.125 7.3125 C-1.70667969 8.11107422 -1.70667969 8.11107422 -3.3203125 8.92578125 C-4.20460938 9.28027344 -5.08890625 9.63476562 -6 10 C-6.66 9.67 -7.32 9.34 -8 9 C-3.25 6 -3.25 6 -1 6 C-0.67 4.02 -0.34 2.04 0 0 Z " fill="#28A2E0" transform="translate(475,582)"/>
<path d="M0 0 C0.66 0.33 1.32 0.66 2 1 C2.05429959 2.74965358 2.09292823 4.49979787 2.125 6.25 C2.14820313 7.22453125 2.17140625 8.1990625 2.1953125 9.203125 C1.99862781 12.0196498 1.44568916 13.60949036 0 16 C-1.08489672 12.74530985 -1.13323992 10.29456791 -1.125 6.875 C-1.12757813 5.79992187 -1.13015625 4.72484375 -1.1328125 3.6171875 C-1 1 -1 1 0 0 Z " fill="#222C33" transform="translate(705,769)"/>
<path d="M0 0 C10.55808656 -0.18451025 10.55808656 -0.18451025 15 1 C14.01 1.33 13.02 1.66 12 2 C11.67 2.66 11.34 3.32 11 4 C7.7 3.67 4.4 3.34 1 3 C0.67 2.01 0.34 1.02 0 0 Z " fill="#E0E8EE" transform="translate(143,735)"/>
<path d="M0 0 C5.61 0 11.22 0 17 0 C16.67 0.99 16.34 1.98 16 3 C13.89646505 3.0810206 11.79204048 3.13919907 9.6875 3.1875 C8.51574219 3.22230469 7.34398437 3.25710938 6.13671875 3.29296875 C3 3 3 3 0 0 Z " fill="#233139" transform="translate(406,621)"/>
<path d="M0 0 C0.33 0 0.66 0 1 0 C1 5.94 1 11.88 1 18 C0.34 18 -0.32 18 -1 18 C-1.88327729 14.9473937 -2.1633007 12.17494823 -2.1875 9 C-2.20167969 8.154375 -2.21585937 7.30875 -2.23046875 6.4375 C-1.98543096 3.84591384 -1.30584901 2.22975008 0 0 Z " fill="#1F2D35" transform="translate(335,299)"/>
<path d="M0 0 C0 1.65 0 3.3 0 5 C-0.99 5 -1.98 5 -3 5 C-3.66 4.34 -4.32 3.68 -5 3 C-5.99 3.495 -5.99 3.495 -7 4 C-8.99960012 4.039992 -11.00047242 4.04346799 -13 4 C-13 3.01 -13 2.02 -13 1 C-11.20843648 0.83222817 -9.4167455 0.66581706 -7.625 0.5 C-6.62726563 0.4071875 -5.62953125 0.314375 -4.6015625 0.21875 C-2 0 -2 0 0 0 Z " fill="#D0DAE0" transform="translate(242,781)"/>
<path d="M0 0 C0.33 0.99 0.66 1.98 1 3 C-1.97 5.97 -4.94 8.94 -8 12 C-8.99 11.67 -9.98 11.34 -11 11 C-7.37 7.37 -3.74 3.74 0 0 Z " fill="#D9E1E5" transform="translate(538,391)"/>
<path d="M0 0 C0.99 0.33 1.98 0.66 3 1 C0.03 4.3 -2.94 7.6 -6 11 C-6.99 10.34 -7.98 9.68 -9 9 C-6.03 6.03 -3.06 3.06 0 0 Z " fill="#242E34" transform="translate(707,280)"/>
<path d="M0 0 C0.66 0.33 1.32 0.66 2 1 C2.05395478 2.62463842 2.09277195 4.24978541 2.125 5.875 C2.14820313 6.77992188 2.17140625 7.68484375 2.1953125 8.6171875 C2 11 2 11 0 13 C-0.94738023 10.15785932 -1.13460559 8.32391609 -1.125 5.375 C-1.12757813 4.57835937 -1.13015625 3.78171875 -1.1328125 2.9609375 C-1 1 -1 1 0 0 Z " fill="#273137" transform="translate(716,250)"/>
<path d="M0 0 C0.33 0 0.66 0 1 0 C1.08078641 2.12438339 1.13909141 4.2496323 1.1875 6.375 C1.22230469 7.55835938 1.25710938 8.74171875 1.29296875 9.9609375 C1.19628906 10.96382812 1.09960938 11.96671875 1 13 C0.01 13.66 -0.98 14.32 -2 15 C-2.05406122 13.06280622 -2.09282025 11.12518079 -2.125 9.1875 C-2.14820313 8.10855469 -2.17140625 7.02960937 -2.1953125 5.91796875 C-2 3 -2 3 0 0 Z " fill="#DCE6EE" transform="translate(856,767)"/>
<path d="M0 0 C4.54300628 0.19795234 8.04994941 0.4260111 12 2.8125 C13.98382135 4.9823046 14.69095593 6.11558865 15 9 C14.01 9.495 14.01 9.495 13 10 C13 9.01 13 8.02 13 7 C12.34 7 11.68 7 11 7 C10.67 6.01 10.34 5.02 10 4 C7.67108904 2.97299556 7.67108904 2.97299556 4.9375 2.3125 C4.01839844 2.06113281 3.09929687 1.80976562 2.15234375 1.55078125 C1.44207031 1.36902344 0.73179687 1.18726563 0 1 C0 0.67 0 0.34 0 0 Z " fill="#D4DCE0" transform="translate(327,758)"/>
<path d="M0 0 C8.57142857 -0.28571429 8.57142857 -0.28571429 12 2 C9.24921116 2.91692961 7.64051087 3.10886083 4.8125 3.0625 C2.9253125 3.0315625 2.9253125 3.0315625 1 3 C0.67 2.01 0.34 1.02 0 0 Z " fill="#DFE8ED" transform="translate(668,757)"/>
<path d="M0 0 C2.78637633 4.1795645 1.79562512 6.14668677 1 11 C0.34 11 -0.32 11 -1 11 C-1 12.65 -1 14.3 -1 16 C-1.66 15.67 -2.32 15.34 -3 15 C-2.68917128 13.24970238 -2.37626821 11.49977306 -2.0625 9.75 C-1.88847656 8.77546875 -1.71445313 7.8009375 -1.53515625 6.796875 C-1.09620271 4.50278205 -0.59651408 2.25708029 0 0 Z " fill="#DBE3E6" transform="translate(254,398)"/>
<path d="M0 0 C-3.86790352 2.57860235 -6.76613915 2.01114505 -11.1875 1.625 C-11.93708984 1.56828125 -12.68667969 1.5115625 -13.45898438 1.453125 C-15.30676559 1.31189331 -17.153512 1.15723833 -19 1 C-19 0.67 -19 0.34 -19 0 C-12.48755792 -0.69508823 -6.4489191 -1.31909709 0 0 Z " fill="#DBE4EA" transform="translate(492,812)"/>
<path d="M0 0 C0.66 0 1.32 0 2 0 C2.1953125 6.0546875 2.1953125 6.0546875 2 8 C1.34 8.66 0.68 9.32 0 10 C-1.49106457 7.01787087 -1.11941467 4.28390342 -1 1 C-0.67 0.67 -0.34 0.34 0 0 Z " fill="#253036" transform="translate(370,759)"/>
<path d="M0 0 C0.66 0.99 1.32 1.98 2 3 C-0.25 5.5625 -0.25 5.5625 -3 8 C-4.32 7.67 -5.64 7.34 -7 7 C-4.69 4.69 -2.38 2.38 0 0 Z " fill="#D4DDE3" transform="translate(722,293)"/>
<path d="M0 0 C0.33 0.99 0.66 1.98 1 3 C-1 6 -1 6 -4.125 6.6875 C-5.07375 6.790625 -6.0225 6.89375 -7 7 C-5.54744301 3.17053157 -3.57104439 1.87949705 0 0 Z " fill="#121C23" transform="translate(355,177)"/>
<path d="M0 0 C0.99 0 1.98 0 3 0 C3.30466674 5.28089024 3.317124 6.577168 0 11 C0 7.37 0 3.74 0 0 Z " fill="#D9E4EA" transform="translate(874,772)"/>
<path d="M0 0 C0.5625 1.9375 0.5625 1.9375 1 4 C0.67 4.33 0.34 4.66 0 5 C-0.36760731 7.32817964 -0.70241581 9.6618385 -1 12 C-1.66 11.67 -2.32 11.34 -3 11 C-2.8864371 9.35333797 -2.75882619 7.70763918 -2.625 6.0625 C-2.55539063 5.14597656 -2.48578125 4.22945313 -2.4140625 3.28515625 C-2.27742187 2.53105469 -2.14078125 1.77695312 -2 1 C-1.34 0.67 -0.68 0.34 0 0 Z " fill="#DCE4E9" transform="translate(250,426)"/>
<path d="M0 0 C0.66 0.33 1.32 0.66 2 1 C1.01 2.485 1.01 2.485 0 4 C-0.33 4.99 -0.66 5.98 -1 7 C-1.99 7.495 -1.99 7.495 -3 8 C-3.66 8.99 -4.32 9.98 -5 11 C-4.54663921 6.12637153 -3.2910841 3.60957611 0 0 Z " fill="#0A1116" transform="translate(205,778)"/>
<path d="M0 0 C1.37478516 0.01740234 1.37478516 0.01740234 2.77734375 0.03515625 C3.69644531 0.04417969 4.61554688 0.05320312 5.5625 0.0625 C6.27277344 0.07410156 6.98304688 0.08570313 7.71484375 0.09765625 C7.71484375 0.42765625 7.71484375 0.75765625 7.71484375 1.09765625 C6.64234375 1.36578125 5.56984375 1.63390625 4.46484375 1.91015625 C1.14975447 2.95993452 -0.72393271 3.84377953 -3.28515625 6.09765625 C-3.32787725 4.4315372 -3.32579457 2.7638274 -3.28515625 1.09765625 C-2.28515625 0.09765625 -2.28515625 0.09765625 0 0 Z " fill="#1E2C34" transform="translate(274.28515625,716.90234375)"/>
<path d="M0 0 C2.31 0 4.62 0 7 0 C7 0.33 7 0.66 7 1 C8.65 1.33 10.3 1.66 12 2 C12 2.33 12 2.66 12 3 C8.04 3 4.08 3 0 3 C0 2.01 0 1.02 0 0 Z " fill="#D4E0E8" transform="translate(389,623)"/>
<path d="M0 0 C3.3 0 6.6 0 10 0 C9.67 0.99 9.34 1.98 9 3 C6.36 3 3.72 3 1 3 C0.67 2.01 0.34 1.02 0 0 Z " fill="#222F37" transform="translate(361,295)"/>
<path d="M0 0 C0.33 0 0.66 0 1 0 C1.33 3.63 1.66 7.26 2 11 C1.01 11 0.02 11 -1 11 C-0.67 7.37 -0.34 3.74 0 0 Z " fill="#263037" transform="translate(246,485)"/>
<path d="M0 0 C2 1 2 1 2 1 Z M-2 1 C-1.34 1.33 -0.68 1.66 0 2 C-1.6875 4.0625 -1.6875 4.0625 -4 6 C-6.75 5.75 -6.75 5.75 -9 5 C-6.66603411 3.44402274 -4.57343171 2.07918104 -2 1 Z " fill="#E2E8ED" transform="translate(238,807)"/>
<path d="M0 0 C4.455 2.97 4.455 2.97 9 6 C6 7 6 7 3.375 6.375 C2.199375 5.694375 2.199375 5.694375 1 5 C0.67 3.35 0.34 1.7 0 0 Z " fill="#E1E8EB" transform="translate(657,804)"/>
<path d="M0 0 C2.37948772 0.17625835 3.70225849 0.69719773 5.37890625 2.40234375 C6.62115486 3.90649092 7.81376056 5.45129851 9 7 C5.0480185 7 3.85351584 5.62823828 1 3 C0.67 2.01 0.34 1.02 0 0 Z " fill="#E1E9ED" transform="translate(762,742)"/>
<path d="M0 0 C0.78375 0.04125 1.5675 0.0825 2.375 0.125 C2.375 0.785 2.375 1.445 2.375 2.125 C3.365 2.125 4.355 2.125 5.375 2.125 C5.375 2.785 5.375 3.445 5.375 4.125 C2.075 3.465 -1.225 2.805 -4.625 2.125 C-2.625 0.125 -2.625 0.125 0 0 Z " fill="#DCE4E8" transform="translate(326.625,583.875)"/>
<path d="M0 0 C-1.39332574 3.36720387 -2.9789286 4.9859524 -6 7 C-6.66 6.67 -7.32 6.34 -8 6 C-7.0479279 4.99403703 -6.08812654 3.99538437 -5.125 3 C-4.59132813 2.443125 -4.05765625 1.88625 -3.5078125 1.3125 C-2 0 -2 0 0 0 Z " fill="#D9E1E6" transform="translate(652,365)"/>
<path d="M0 0 C2.6875 0.3125 2.6875 0.3125 5 1 C4.67 1.66 4.34 2.32 4 3 C1.69 3 -0.62 3 -3 3 C-1.8125 1.4375 -1.8125 1.4375 0 0 Z " fill="#DAE3E8" transform="translate(556,759)"/>
<path d="M0 0 C1.98 0 3.96 0 6 0 C5.67 0.99 5.34 1.98 5 3 C3.35 3 1.7 3 0 3 C0 2.01 0 1.02 0 0 Z " fill="#232D33" transform="translate(276,733)"/>
<path d="M0 0 C4.95 0.99 4.95 0.99 10 2 C5.82091936 4.08954032 5.19589427 4.16552619 1 3 C0.67 2.01 0.34 1.02 0 0 Z " fill="#DCE7EE" transform="translate(337,587)"/>
<path d="M0 0 C0.33 0.99 0.66 1.98 1 3 C-0.32 4.32 -1.64 5.64 -3 7 C-3.99 6.67 -4.98 6.34 -6 6 C-4.02 4.02 -2.04 2.04 0 0 Z " fill="#D7E0E4" transform="translate(554,375)"/>
<path d="M0 0 C0 4.38968456 -2.12805101 5.76905739 -5 9 C-5.33 8.01 -5.66 7.02 -6 6 C-4.02 4.02 -2.04 2.04 0 0 Z " fill="#262E33" transform="translate(697,290)"/>
<path d="M0 0 C1.32 0 2.64 0 4 0 C4 1.65 4 3.3 4 5 C3.01 5 2.02 5 1 5 C0.67 3.35 0.34 1.7 0 0 Z " fill="#D4DCE1" transform="translate(609,782)"/>
<path d="M0 0 C-0.33 0.66 -0.66 1.32 -1 2 C-3.64 1.67 -6.28 1.34 -9 1 C-5.64919071 -1.10976881 -3.77897651 -1.0497157 0 0 Z " fill="#DFE7ED" transform="translate(477,736)"/>
<path d="M0 0 C-0.66 3.63 -1.32 7.26 -2 11 C-2.33 11 -2.66 11 -3 11 C-3.33 7.7 -3.66 4.4 -4 1 C-2 0 -2 0 0 0 Z " fill="#D7E7F0" transform="translate(467,613)"/>
<path d="M0 0 C3 0 3 0 5 1 C4.67 1.99 4.34 2.98 4 4 C2.02 4 0.04 4 -2 4 C-1.34 2.68 -0.68 1.36 0 0 Z " fill="#1E2C34" transform="translate(352,491)"/>
<path d="M0 0 C0.99 0.33 1.98 0.66 3 1 C0.03 3.475 0.03 3.475 -3 6 C-3.66 5.67 -4.32 5.34 -5 5 C-3.35 3.35 -1.7 1.7 0 0 Z " fill="#263035" transform="translate(532,369)"/>
</svg>
